# AST/ASF file generated using VICON BodyLanguage
# -----------------------------------------------
:version 1.10
:name VICON
:units
  mass 1.0
  length 0.45
  angle deg
:documentation
   .ast/.asf automatically generated from VICON data using
   VICON BodyBuilder and BodyLanguage model FoxedUp or BRILLIANT.MOD
:root
   order TX TY TZ RX RY RZ
   axis XYZ
   position 0 0 0  
   orientation 0 0 0 
:bonedata
  begin
     id 1 
     name lhipjoint
     direction 0.566809 -0.746272 0.349008 
     length 2.40479 
     axis 0 0 0  XYZ
  end
  begin
     id 2 
     name lfemur
     direction 0.34202 -0.939693 0  
     length 7.1578  
     axis 0 0 20  XYZ
    dof rx ry rz
    limits (-160.0 20.0)
           (-70.0 70.0)
           (-60.0 70.0)
  end
  begin
     id 3 
     name ltibia
     direction 0.34202 -0.939693 0   
     length 7.49137   
     axis 0 0 20   XYZ
    dof rx
    limits (-10.0 170.0)
  end
  begin
     id 4 
     name lfoot
     direction 0.0665746 -0.182912 0.980873   
     length 2.36784   
     axis -90 7.62852e-016 20   XYZ
    dof rx rz
    limits (-45.0 90.0)
           (-70.0 20.0)
  end
  begin
     id 5 
     name ltoes
     direction 1.53601e-011 -4.22058e-011 1   
     length 1.18966   
     axis -90 7.62852e-016 20   XYZ
    dof rx
    limits (-90.0 20.0)
  end
  begin
     id 6 
     name rhipjoint
     direction -0.550236 -0.756381 0.353735   
     length 2.37265  
     axis 0 0 0  XYZ 
  end
  begin
     id 7 
     name rfemur
     direction -0.34202 -0.939693 0   
     length 7.43386   
     axis 0 0 -20   XYZ
    dof rx ry rz
    limits (-160.0 20.0)
           (-70.0 70.0)
           (-70.0 60.0)
  end
  begin
     id 8 
     name rtibia
     direction -0.34202 -0.939693 0   
     length 7.50908   
     axis 0 0 -20   XYZ
    dof rx
    limits (-10.0 170.0)
 end
 begin
     id 9 
     name rfoot
     direction -0.0683029 -0.187661 0.979856   
     length 2.41173  
     axis -90 -7.62852e-016 -20   XYZ
    dof rx rz
    limits (-45.0 90.0)
           (-20.0 70.0)
  end
  begin
     id 10 
     name rtoes
     direction -1.53528e-011 -4.21968e-011 1   
     length 1.21082   
     axis -90 -7.62852e-016 -20   XYZ
    dof rx
    limits (-90.0 20.0)
  end
  begin
     id 11 
     name lowerback
     direction 0.013823 0.995423 -0.0945635   
     length 2.04495   
     axis 0 0 0   XYZ
    dof rx ry rz
    limits (-20.0 45.0)
           (-30.0 30.0)
           (-30.0 30.0)
  end
  begin
     id 12 
     name upperback
     direction 0.0276657 0.9994 -0.020853   
     length 2.05008   
     axis 0 0 0   XYZ
    dof rx ry rz
    limits (-20.0 45.0)
           (-30.0 30.0)
           (-30.0 30.0)
  end
  begin
     id 13 
     name thorax
     direction 0.019782 0.999531 0.0233827   
     length 2.06488   
     axis 0 0 0   XYZ
    dof rx ry rz
    limits (-20.0 45.0)
           (-30.0 30.0)
           (-30.0 30.0)
  end
  begin
     id 14 
     name lowerneck
     direction -0.0308541 0.994709 0.0979874   
     length 1.75553   
     axis 0 0 0   XYZ
    dof rx ry rz
    limits (-20.0 45.0)
           (-30.0 30.0)
           (-30.0 30.0)
  end
  begin
     id 15 
     name upperneck
     direction 0.0588398 0.995804 -0.0700903   
     length 1.76878   
     axis 0 0 0   XYZ
    dof rx ry rz
    limits (-20.0 45.0)
           (-30.0 30.0)
           (-30.0 30.0)
  end
  begin
     id 16
     name head
     direction 0.0209966 0.999159 -0.0352225  
     length 1.77193  
     axis 0 0 0   XYZ
    dof rx ry rz
    limits (-20.0 45.0)
           (-30.0 30.0)
           (-30.0 30.0)
  end
  begin
     id 17 
     name lclavicle
     direction 0.938182 0.335073 -0.0868338  
     length 3.58396  
     axis 0 0 0   XYZ
    dof ry rz
    limits (-20.0 10.0)
           (0.0 20.0)
  end
  begin
     id 18 
     name lhumerus
     direction 1 -4.48971e-011 -1.26313e-017   
     length 4.983   
     axis 180 -30 -90   XYZ
    dof rx ry rz
    limits (-60.0 90.0)
           (-90.0 90.0)
           (-90.0 90.0)
  end
  begin
     id 19
     name lradius
     direction 1 -4.48948e-011 -5.89033e-027   
     length 3.48356   
     axis 180 -30 -90   XYZ
    dof rx
    limits (-10.0 170.0)
  end
  begin
     id 20
     name lwrist
     direction 1 -4.48977e-011 -1.48983e-026   
     length 1.74178   
     axis 9.0955e-015 90 90   XYZ
    dof ry
    limits (-180.0 0.0)
 end
  begin
     id 21 
     name lhand
     direction 1 -4.49046e-011 -2.98066e-026   
     length 0.715259   
     axis 1.90115e-014 90 90   XYZ
    dof rx rz
    limits (-90.0 90.0)
           (-45.0 45.0)
  end
  begin
     id 22 
     name lfingers
     direction 1 -4.48907e-011 -5.95731e-026   
     length 0.576661   
     axis 3.80223e-014 90 90   XYZ
    dof rx
    limits (0.0 90.0)
  end
  begin
     id 23
     name lthumb
     direction 0.707107 -6.34963e-011 0.707107   
     length 0.827973   
     axis -90 45 -3.84942e-014   XYZ
    dof rx rz
    limits (-45.0 45.0)
           (-45.0 45.0)
  end
  begin
     id 24 
     name rclavicle
     direction -0.909637 0.398485 -0.11735   
     length 3.44819  
     axis 0 0 0   XYZ 
    dof ry rz
    limits (-10.0 20.0)
           (-20.0 0.0)
  end
  begin
     id 25 
     name rhumerus
     direction -1 -4.48978e-011 -1.09333e-027  
     length 5.2419   
     axis 180 30 90   XYZ
    dof rx ry rz
    limits (-90.0 60.0)
           (-90.0 90.0)
           (-90.0 90.0)
  end
  begin
     id 26 
     name rradius
     direction -1 -4.48953e-011 -7.61841e-027   
     length 3.44417   
     axis 180 30 90   XYZ
    dof rx
    limits (-10.0 170.0)
  end
  begin
     id 27 
     name rwrist
     direction -1 -4.48977e-011 -1.48983e-026   
     length 1.72209   
     axis 9.0955e-015 -90 -90   XYZ
    dof ry
    limits (-180.0 0.0)
  end
  begin
     id 28
     name rhand
     direction -1 -4.49027e-011 -2.98038e-026   
     length 0.622529   
     axis 1.90115e-014 -90 -90   XYZ
    dof rx rz
    limits (-90.0 90.0)
           (-45.0 45.0)
  end
  begin
     id 29
     name rfingers
     direction -1 -4.48838e-011 -5.95531e-026   
     length 0.501899   
     axis 3.80223e-014 -90 -90   XYZ
    dof rx
    limits (0.0 90.0)
  end
  begin
     id 30
     name rthumb
     direction -0.707107 -6.34937e-011 0.707107   
     length 0.720629   
     axis -90 -45 3.84942e-014   XYZ
    dof rx rz
    limits (-45.0 45.0)
           (-45.0 45.0)
  end
:hierarchy
  begin
    root lhipjoint rhipjoint lowerback
    lhipjoint lfemur
    lfemur ltibia
    ltibia lfoot
    lfoot ltoes
    rhipjoint rfemur
    rfemur rtibia
    rtibia rfoot
    rfoot rtoes
    lowerback upperback
    upperback thorax
    thorax lowerneck lclavicle rclavicle
    lowerneck upperneck
    upperneck head
    lclavicle lhumerus
    lhumerus lradius
    lradius lwrist
    lwrist lhand lthumb
    lhand lfingers
    rclavicle rhumerus
    rhumerus rradius
    rradius rwrist
    rwrist rhand rthumb
    rhand rfingers
  end

#!OML:ASF F:\VICON\USERDATA\Patient Classification 1\PLAYGROUND\JustinFriday\JustinFriday.ASF
:FULLY-SPECIFIED
:DEGREES
137
root 20.0299 17.9793 19.721 180.211 -24.557 -172.394
lowerback 7.93624 1.13103 -2.15466
upperback 3.13455 1.18796 1.56738
thorax -1.28659 0.49485 2.7241
lowerneck 8.31021 -15.5936 -14.353
upperneck 9.47204 -26.0584 21.3141
head 6.25312 -13.4125 7.30318
rclavicle -4.4329e-014 2.06736e-014
rhumerus -25.7861 -9.1618 -83.4189
rradius 29.5228
rwrist -12.4021
rhand -19.8989 -21.195
rfingers 7.12502
rthumb 6.43742 -51.0771
lclavicle -4.4329e-014 2.06736e-014
lhumerus -22.1033 10.9883 71.9149
lradius 38.8882
lwrist 7.13396
lhand -16.4212 -4.42386
lfingers 7.12502
lthumb 9.79377 25.3284
rfemur -2.34926 -16.4622 24.9505
rtibia 33.3354
rfoot -22.5863 -27.3528
rtoes 17.5183
lfemur -23.4649 18.3352 -12.0946
ltibia 27.612
lfoot -38.6423 28.448
ltoes 46.4189
138
root 20.1072 17.9729 19.7582 180.393 -23.4633 -172.481
lowerback 7.79875 1.15653 -2.01157
upperback 3.20916 1.22852 1.57039
thorax -1.13345 0.510538 2.64522
lowerneck 8.06498 -15.4398 -14.4933
upperneck 9.87673 -25.8852 21.0538
head 6.36677 -13.3092 7.23565
rclavicle -1.53064e-014 1.03368e-014
rhumerus -25.641 -8.25516 -83.739
rradius 29.8837
rwrist -13.247
rhand -16.2722 -25.0437
rfingers 7.12502
rthumb 9.93757 -54.7891
lclavicle -1.53064e-014 1.03368e-014
lhumerus -22.2269 11.0099 71.8306
lradius 39.4215
lwrist 7.76182
lhand -17.0745 -4.3931
lfingers 7.12502
lthumb 9.16348 25.3878
rfemur -2.37181 -16.1675 24.9291
rtibia 32.8908
rfoot -22.3889 -26.9422
rtoes 15.0994
lfemur -23.4648 17.7609 -11.666
ltibia 27.5857
lfoot -40.7982 28.5198
ltoes 47.0483
139
root 20.2137 17.9518 19.7709 180.134 -22.5391 -172.474
lowerback 8.00544 1.1184 -2.44503
upperback 3.34855 1.12836 1.8311
thorax -1.11035 0.446245 3.1677
lowerneck 8.00896 -15.2556 -14.9849
upperneck 10.4148 -25.7907 20.8592
head 6.56224 -13.2684 7.23741
rclavicle -9.14409e-015 0
rhumerus -25.5012 -7.80112 -83.7437
rradius 30.2547
rwrist -12.1946
rhand -16.434 -25.8164
rfingers 7.12502
rthumb 9.78144 -55.5692
lclavicle -9.14409e-015 0
lhumerus -22.6546 11.2808 71.8238
lradius 39.9927
lwrist 8.50829
lhand -18.1619 -4.71643
lfingers 7.12502
lthumb 8.11405 25.1078
rfemur -1.81352 -15.7466 25.114
rtibia 32.4223
rfoot -21.9238 -26.8623
rtoes 11.6136
lfemur -22.9911 18.4878 -11.0717
ltibia 27.5467
lfoot -41.5775 27.5549
ltoes 47.6866
140
root 20.2995 17.9335 19.8097 180.319 -21.6918 -172.564
lowerback 7.91213 1.01685 -2.30459
upperback 3.37031 1.00261 1.77659
thorax -1.02406 0.382481 3.04419
lowerneck 7.9938 -15.0718 -15.0583
upperneck 10.7651 -25.5928 20.5855
head 6.60571 -13.1767 7.1881
rclavicle 4.81059e-014 -1.27222e-014
rhumerus -25.3912 -7.87485 -83.8823
rradius 30.7067
rwrist -10.7145
rhand -18.1789 -24.4467
rfingers 7.12502
rthumb 8.09769 -54.2715
lclavicle 4.81059e-014 -1.27222e-014
lhumerus -22.8421 11.4722 71.5414
lradius 40.3779
lwrist 8.89408
lhand -18.8208 -5.78116
lfingers 7.12502
lthumb 7.4781 24.0667
rfemur -1.79655 -15.6749 25.1451
rtibia 31.9641
rfoot -21.3833 -26.2376
rtoes 8.62906
lfemur -23.0995 18.4558 -10.7922
ltibia 27.5174
lfoot -42.831 27.1663
ltoes 48.2548
141
root 20.3908 17.9182 19.8434 180.455 -20.7582 -172.877
lowerback 7.85631 1.03839 -2.45318
upperback 3.4774 1.01257 1.63864
thorax -0.883458 0.380747 2.9854
lowerneck 8.19612 -14.952 -14.9391
upperneck 10.7725 -25.4425 20.4751
head 6.51289 -13.1219 7.18563
rclavicle -5.725e-014 -5.56597e-015
rhumerus -25.371 -7.1682 -84.3989
rradius 31.194
rwrist -12.0891
rhand -20.0036 -22.1854
rfingers 7.12502
rthumb 6.33634 -52.0706
lclavicle -5.725e-014 -5.56597e-015
lhumerus -22.876 11.5255 71.2553
lradius 40.6923
lwrist 8.94273
lhand -18.8692 -6.59784
lfingers 7.12502
lthumb 7.43141 23.2516
rfemur -1.64113 -15.4047 24.9056
rtibia 31.5109
rfoot -21.5081 -25.3982
rtoes 7.69097
lfemur -23.0021 18.0088 -10.5826
ltibia 27.5266
lfoot -44.3672 27.2565
ltoes 48.5703
142
root 20.4872 17.906 19.8767 180.576 -19.9261 -172.745
lowerback 7.81048 1.01644 -2.14348
upperback 3.44198 1.00685 1.53697
thorax -0.887819 0.382582 2.70606
lowerneck 8.74014 -14.8078 -14.8069
upperneck 10.6962 -25.4186 20.7277
head 6.41081 -13.1641 7.31321
rclavicle 3.81667e-014 7.15625e-015
rhumerus -25.614 -6.17372 -85.1646
rradius 31.8924
rwrist -14.2216
rhand -20.465 -23.2812
rfingers 7.12502
rthumb 5.89092 -53.1793
lclavicle 3.81667e-014 7.15625e-015
lhumerus -23.0789 11.3952 70.9262
lradius 41.0255
lwrist 8.89861
lhand -18.8927 -7.04058
lfingers 7.12502
lthumb 7.40874 22.8097
rfemur -1.67977 -15.2711 25.1681
rtibia 31.078
rfoot -21.9933 -24.2245
rtoes 8.14998
lfemur -23.1122 17.3882 -9.9117
ltibia 27.5806
lfoot -46.0526 27.3957
ltoes 48.6319
143
root 20.5841 17.8872 19.9108 180.526 -19.0947 -172.475
lowerback 7.94195 0.840048 -1.73327
upperback 3.47081 0.791349 1.55288
thorax -0.9122 0.274629 2.50892
lowerneck 8.78617 -14.5205 -14.9347
upperneck 11.033 -25.203 20.7849
head 6.48934 -13.0801 7.3841
rclavicle 7.7526e-015 -3.97569e-015
rhumerus -25.7115 -4.85569 -85.8192
rradius 32.8354
rwrist -15.4966
rhand -15.9387 -30.5818
rfingers 7.12502
rthumb 10.2593 -60.3116
lclavicle 7.7526e-015 -3.97569e-015
lhumerus -23.3959 11.6908 70.5814
lradius 41.3482
lwrist 8.98962
lhand -19.2711 -7.46144
lfingers 7.12502
lthumb 7.04346 22.4014
rfemur -1.55214 -15.3435 25.5396
rtibia 30.6212
rfoot -22.0438 -23.1113
rtoes 8.00129
lfemur -23.1237 17.3863 -9.13069
ltibia 27.6922
lfoot -47.2483 26.82
ltoes 48.8571
